<svg width="40" height="41" viewBox="0 0 40 41" fill="none" xmlns="http://www.w3.org/2000/svg">
<rect y="0.630371" width="40" height="40" rx="20" fill="#586F69"/>
<path d="M28.2031 14.4116C28.9062 14.7241 29.375 15.3882 29.375 16.1304C29.375 24.8022 24.0625 29.6069 20.7031 31.0132C20.2344 31.2085 19.7266 31.2085 19.2578 31.0132C15.0781 29.2554 10.625 23.9038 10.625 16.1304C10.625 15.3882 11.0547 14.7241 11.7578 14.4116L19.2578 11.2866C19.4922 11.2085 19.7266 11.1694 20 11.1694C20.2344 11.1694 20.4688 11.2085 20.7031 11.2866L28.2031 14.4116ZM20 28.5913C23.6328 26.7554 26.7188 22.4585 26.8359 16.5601L20 13.7085V28.5913Z" fill="white"/>
</svg>
