<svg width="40" height="41" viewBox="0 0 40 41" fill="none" xmlns="http://www.w3.org/2000/svg">
<rect y="0.630371" width="40" height="40" rx="20" fill="#586F69"/>
<path d="M31.875 24.8804C32.1875 24.8804 32.5 25.1929 32.5 25.5054V26.7554C32.5 27.1069 32.1875 27.3804 31.875 27.3804H30C30 29.4507 28.3203 31.1304 26.25 31.1304C24.1797 31.1304 22.5 29.4507 22.5 27.3804H17.5C17.5 29.4507 15.8203 31.1304 13.75 31.1304C11.6797 31.1304 10 29.4507 10 27.3804V22.3804H15.9375C16.0938 22.3804 16.25 22.2632 16.25 22.0679V21.4429C16.25 21.2866 16.0938 21.1304 15.9375 21.1304H7.8125C7.61719 21.1304 7.5 21.0132 7.5 20.8179V20.1929C7.5 20.0366 7.61719 19.8804 7.8125 19.8804H17.1875C17.3438 19.8804 17.5 19.7632 17.5 19.5679V18.9429C17.5 18.7866 17.3438 18.6304 17.1875 18.6304H9.0625C8.86719 18.6304 8.75 18.5132 8.75 18.3179V17.6929C8.75 17.5366 8.86719 17.3804 9.0625 17.3804H18.4375C18.5938 17.3804 18.75 17.2632 18.75 17.0679V16.4429C18.75 16.2866 18.5938 16.1304 18.4375 16.1304H7.8125C7.61719 16.1304 7.5 16.0132 7.5 15.8179V15.1929C7.5 15.0366 7.61719 14.8804 7.8125 14.8804H10V13.0054C10 11.9897 10.8203 11.1304 11.875 11.1304H21.875C22.8906 11.1304 23.75 11.9897 23.75 13.0054V14.8804H25.4688C25.9375 14.8804 26.4453 15.1147 26.7969 15.4663L30.6641 19.3335C31.0156 19.6851 31.25 20.1929 31.25 20.6616V24.8804H31.875ZM13.75 29.2554C14.7656 29.2554 15.625 28.4351 15.625 27.3804C15.625 26.3647 14.7656 25.5054 13.75 25.5054C12.6953 25.5054 11.875 26.3647 11.875 27.3804C11.875 28.4351 12.6953 29.2554 13.75 29.2554ZM26.25 29.2554C27.2656 29.2554 28.125 28.4351 28.125 27.3804C28.125 26.3647 27.2656 25.5054 26.25 25.5054C25.1953 25.5054 24.375 26.3647 24.375 27.3804C24.375 28.4351 25.1953 29.2554 26.25 29.2554ZM29.375 21.1304V20.6616L25.4688 16.7554H23.75V21.1304H29.375Z" fill="white"/>
</svg>
