<svg width="40" height="41" viewBox="0 0 40 41" fill="none" xmlns="http://www.w3.org/2000/svg">
<rect y="0.630371" width="40" height="40" rx="20" fill="#586F69"/>
<path d="M14.875 19.8804C12.4531 19.8804 10.5 17.9272 10.5 15.5054C10.5 13.1226 12.4531 11.1304 14.875 11.1304C17.2578 11.1304 19.25 13.1226 19.25 15.5054C19.25 17.9272 17.2578 19.8804 14.875 19.8804ZM14.875 13.6304C13.8203 13.6304 13 14.4897 13 15.5054C13 16.5601 13.8203 17.3804 14.875 17.3804C15.8906 17.3804 16.75 16.5601 16.75 15.5054C16.75 14.4897 15.8906 13.6304 14.875 13.6304ZM23.625 22.3804C26.0078 22.3804 28 24.3726 28 26.7554C28 29.1772 26.0078 31.1304 23.625 31.1304C21.2031 31.1304 19.25 29.1772 19.25 26.7554C19.25 24.3726 21.2031 22.3804 23.625 22.3804ZM23.625 28.6304C24.6406 28.6304 25.5 27.8101 25.5 26.7554C25.5 25.7397 24.6406 24.8804 23.625 24.8804C22.5703 24.8804 21.75 25.7397 21.75 26.7554C21.75 27.8101 22.5703 28.6304 23.625 28.6304ZM25.8125 11.1694H27.0234C27.8047 11.1304 28.2344 11.9897 27.8047 12.6147L13.5078 30.7397C13.3516 30.9741 13.0391 31.1304 12.7266 31.1304H11.4375C10.6562 31.1304 10.2266 30.271 10.6562 29.6851L25.0312 11.5601C25.2266 11.2866 25.5 11.1694 25.8125 11.1694Z" fill="white"/>
</svg>
