<svg width="250" height="420" viewBox="0 0 250 420" fill="none" xmlns="http://www.w3.org/2000/svg">
<path d="M133.429 135.055C143.642 144.7 156.315 153.447 161.374 156.615C165.751 156.204 167.753 153.093 168.207 151.59C152.608 126.564 148.519 113.688 148.424 110.378C143.461 87.5124 160.004 79.1141 168.897 77.7731C181.315 77.8683 207.699 76.4521 213.891 70.0261C221.631 61.9936 237.433 58.5602 241.796 62.3706C245.286 65.419 254.753 69.738 259.051 71.5164C302.797 91.1257 319.398 112.919 322.23 121.364C301.14 123.617 254.522 129.829 236.766 136.649C219.01 143.47 227.632 145.967 234.162 146.363C270.069 144.286 319.858 160.023 340.264 168.151L350.119 222.904C345.943 212.561 331.381 204.32 324.622 201.493C305.427 193.774 264.631 177.61 255.008 174.705C245.384 171.801 241.803 175.838 241.215 178.22C241.079 181.57 243.674 188.032 255.143 187.084C269.479 185.898 289.183 195.193 290.195 194.448C309.418 202.77 339.078 225.565 351.505 235.922L347.353 249.894C349.017 256.153 345.502 260.841 342.699 263.107C342.377 263.452 341.941 263.765 341.378 264.038C341.78 263.798 342.229 263.487 342.699 263.107C345.923 259.648 337.738 252.903 332.779 249.695C321.414 242.196 294.292 225.36 276.718 218.008C259.145 210.657 266.697 216.93 272.669 220.986C324.663 245.448 336.651 261.145 336.145 265.936C323.681 260.442 323.318 287.199 324.695 301.264C302.644 299.701 277.428 314.582 267.576 322.218C260.382 317.526 250.349 296.674 246.231 286.834C242.598 276.769 234.023 254.012 228.793 243.508C223.564 233.005 219.989 235.426 218.856 237.949C217.891 240.349 216.301 246.458 217.659 251.698C219.017 256.938 217.642 271.467 216.784 278.077L219.906 300.348C228.934 350.795 245.753 351.396 253.035 345.391C245.128 352.454 221.877 349.33 211.24 346.885C193.391 326.01 187.332 289.991 186.533 274.59C185.395 261.909 182.853 234.17 181.785 224.66C180.718 215.151 175.53 219.513 173.069 222.882L168.121 234.711L164.297 253.9C163.293 260.488 161.935 279.424 164.534 302.469C167.133 325.513 176.335 343.962 180.611 350.306C174.995 343.518 141.12 324.889 124.885 316.423C119.21 315.917 112.749 308.582 110.227 304.977C110.847 301.401 112.835 290.815 115.829 277.071C118.822 263.327 132.608 236.263 139.127 224.45C144.485 210.527 144.94 203.017 144.498 201.002C144.615 199.747 142.336 198.381 132.291 202.962C122.246 207.542 115.791 213.928 113.818 216.548C109.289 226.119 98.9831 246.957 93.9939 253.746C87.7574 262.232 85.5486 276.725 84.507 280.61C83.8586 283.029 85.8164 292.63 87.5837 300.115C88.4469 302.122 88.8694 303.875 88.9838 305.783C88.5757 304.209 88.0874 302.248 87.5837 300.115C85.5754 295.444 81.1815 289.395 72.731 276.793C63.0646 262.378 60.2006 252.864 59.9769 249.909C59.3813 249.1 58.2147 245.746 57.7059 244.171C56.2512 238.482 53.556 225.698 54.4128 220.077C55.2695 214.455 53.0957 204.148 51.9017 199.697L42.7819 187.297C42.4717 186.876 41.4937 183.955 40.0635 175.649C38.6333 167.342 46.0807 159.265 49.9831 156.265C51.4785 150.875 57.8342 143.081 59.0995 142.151C70.4715 130.043 91.1785 124.796 100.11 123.686C106.961 123.457 123.215 125.41 133.429 135.055Z" fill="#DFE7D8"/>
<path d="M175.222 152.489C170.163 149.321 157.491 140.574 147.277 130.929C137.063 121.284 120.809 119.331 113.959 119.56C105.027 120.67 84.3198 125.917 72.9478 138.025C71.6825 138.955 65.3268 146.749 63.8314 152.139C59.9289 155.139 52.4816 163.216 53.9118 171.523C55.342 179.829 56.32 182.75 56.6302 183.171L65.75 195.571C66.944 200.022 69.1178 210.329 68.261 215.951C67.4043 221.572 70.0995 234.356 71.5542 240.045C72.063 241.62 73.2296 244.974 73.8252 245.783C74.0488 248.738 76.9128 258.252 86.5793 272.667C98.6623 290.686 102.452 295.308 102.832 301.657C100.993 294.562 97.522 279.593 98.3553 276.484C99.3968 272.599 101.606 258.106 107.842 249.62C112.831 242.831 123.137 221.993 127.667 212.422C129.639 209.802 136.094 203.416 146.14 198.836C156.185 194.255 158.463 195.621 158.346 196.876C158.788 198.891 158.333 206.401 152.975 220.324C146.456 232.138 132.67 259.201 129.677 272.945C126.683 286.689 124.695 297.275 124.076 300.851C126.597 304.456 133.058 311.791 138.733 312.297C154.968 320.763 188.843 339.392 194.459 346.18C190.183 339.836 180.982 321.387 178.382 298.343C175.783 275.298 177.141 256.362 178.145 249.774L181.969 230.585L186.917 218.756C189.378 215.387 194.567 211.025 195.634 220.534C196.701 230.044 199.244 257.783 200.382 270.464C201.18 285.865 207.239 321.884 225.088 342.759C235.725 345.204 258.976 348.328 266.883 341.265C259.602 347.27 242.782 346.669 233.754 296.222L230.632 273.951C231.49 267.341 232.866 252.812 231.507 247.572C230.149 242.332 231.739 236.223 232.704 233.823C233.837 231.3 237.412 228.879 242.641 239.382C247.871 249.886 256.446 272.643 260.08 282.708C264.197 292.548 274.231 313.4 281.425 318.092C291.276 310.456 316.492 295.575 338.543 297.138C337.166 283.073 337.53 256.316 349.994 261.81C350.499 257.019 338.512 241.322 286.518 216.86C280.545 212.804 272.993 206.531 290.566 213.882C308.14 221.234 335.262 238.07 346.627 245.569C352.081 249.097 361.437 256.904 355.226 259.912C358.027 258.242 363.144 253.075 361.201 245.768L365.353 231.797C352.926 221.439 323.266 198.644 304.043 190.322C303.031 191.067 283.327 181.772 268.991 182.958C257.523 183.906 254.928 177.444 255.064 174.094C255.651 171.712 259.233 167.675 268.856 170.579C278.479 173.484 319.275 189.648 338.47 197.367C345.229 200.194 359.791 208.435 363.967 218.778L354.112 164.025C333.706 155.897 283.917 140.16 248.011 142.237C241.48 141.841 232.858 139.344 250.614 132.523C268.371 125.703 314.989 119.491 336.078 117.238C333.246 108.793 316.645 86.9997 272.899 67.3904C268.602 65.612 259.134 61.293 255.644 58.2447C251.282 54.4342 235.48 57.8677 227.74 65.9001C221.547 72.3261 195.163 73.7423 182.745 73.6471C173.853 74.9881 157.309 83.3865 162.272 106.252C162.367 109.562 166.456 122.438 182.055 147.464C181.601 148.967 179.599 152.078 175.222 152.489Z" stroke="#688E47" stroke-width="2"/>
<path d="M122.29 135.659L168.091 149.155L180.812 152.667M180.812 152.667C156.321 153.652 105.587 156.211 98.5781 158.558M180.812 152.667L183.977 156.969M180.812 152.667L182.561 147.091L184.608 149.875M183.977 156.969C157.611 170.251 102.834 201.987 94.6489 222.669M183.977 156.969L198.046 170.797M198.046 170.797C184.093 191.588 156.382 238.953 157.171 262.081M198.046 170.797L224.354 192.781M224.354 192.781C218.962 205.066 210.88 240.204 221.694 282.475M224.354 192.781L252.59 216.857M252.59 216.857C252.567 228.312 252.626 252.003 253.049 255.124C253.473 258.244 252.92 230.913 252.59 216.857ZM252.59 216.857L314.073 273.412L239.562 199.143M239.562 199.143C255.106 196.42 291.509 195.017 312.77 211.2M239.562 199.143L209.651 172.79M209.651 172.79C228.586 163.543 274.233 149.155 305.343 165.58M209.651 172.79L194.837 157.95M194.837 157.95C207.546 144.833 241.759 116.03 276.938 105.753M194.837 157.95L184.608 149.875M184.608 149.875C190.979 140.51 204.533 119.388 207.789 109.819C211.045 100.249 219.128 86.5317 222.762 80.8693" stroke="#688E47" stroke-width="2"/>
</svg>
