<svg width="241" height="257" viewBox="0 0 241 257" fill="none" xmlns="http://www.w3.org/2000/svg">
<path d="M12.3576 175.622C-12.7093 227.497 -31.6587 230.528 -38 225.559V255C22.0561 249.534 145.003 233.46 156.343 212.888C167.683 192.317 139.184 191.895 123.517 194.255C102.504 202.081 58.3135 217.957 49.6595 218.851C41.0054 219.746 46.0536 211.274 49.6595 206.926C108.969 178.355 229.678 113.237 238.034 81.3365C246.39 49.4361 226.097 59.846 214.907 69.0385C192.65 89.9079 137.244 137.46 93.6757 160.715C50.1071 183.969 46.1779 170.404 49.6595 160.715C71.2946 123.2 115.598 42.0611 108.223 20.9642C100.017 -2.51387 73.5087 20.9642 68.6834 35.4983C60.3527 60.5913 37.4244 123.746 12.3576 175.622Z" stroke="#688E47" stroke-width="2"/>
<path d="M4.35756 164.622C-20.7093 216.497 -39.6587 219.528 -46 214.559V244C14.0561 238.534 137.003 222.46 148.343 201.888C159.683 181.317 131.184 180.895 115.517 183.255C94.5038 191.081 50.3135 206.957 41.6595 207.851C33.0054 208.746 38.0536 200.274 41.6595 195.926C100.969 167.355 221.678 102.237 230.034 70.3365C238.39 38.4361 218.097 48.846 206.907 58.0385C184.65 78.9079 129.244 126.46 85.6757 149.715C42.1071 172.969 38.1779 159.404 41.6595 149.715C63.2946 112.2 107.598 31.0611 100.223 9.96421C92.017 -13.5139 65.5087 9.96423 60.6834 24.4983C52.3527 49.5913 29.4244 112.746 4.35756 164.622Z" fill="#688E47" fill-opacity="0.21"/>
</svg>
