<svg width="40" height="41" viewBox="0 0 40 41" fill="none" xmlns="http://www.w3.org/2000/svg">
<rect y="0.630371" width="40" height="40" rx="20" fill="#586F69"/>
<path d="M19.2188 30.7397C13.5156 22.5366 12.5 21.6772 12.5 18.6304C12.5 14.4897 15.8203 11.1304 20 11.1304C24.1406 11.1304 27.5 14.4897 27.5 18.6304C27.5 21.6772 26.4453 22.5366 20.7422 30.7397C20.3906 31.2866 19.5703 31.2866 19.2188 30.7397ZM20 21.7554C21.7188 21.7554 23.125 20.3882 23.125 18.6304C23.125 16.9116 21.7188 15.5054 20 15.5054C18.2422 15.5054 16.875 16.9116 16.875 18.6304C16.875 20.3882 18.2422 21.7554 20 21.7554Z" fill="white"/>
</svg>
